<?xml version="1.0" standalone="no"?><!DOCTYPE svg PUBLIC "-//W3C//DTD SVG 1.1//EN" "http://www.w3.org/Graphics/SVG/1.1/DTD/svg11.dtd"><svg t="1763024396686" class="icon" viewBox="0 0 1024 1024" version="1.1" xmlns="http://www.w3.org/2000/svg" p-id="22011" width="128" height="128" xmlns:xlink="http://www.w3.org/1999/xlink"><path d="M512 0A512 512 0 1 1 0 512 512 512 0 0 1 512 0z" fill="#D62D2D" p-id="22012"></path><path d="M478.606222 623.786667a40.704 40.704 0 0 0 30.407111 12.288 42.894222 42.894222 0 0 0 30.407111-12.288l171.292445-183.580445a39.822222 39.822222 0 0 0-30.435556-67.271111h-93.866666V250.88a40.647111 40.647111 0 0 0-40.647111-40.789333h-81.464889a40.647111 40.647111 0 0 0-40.789334 40.789333v122.140444h-85.816889a40.789333 40.789333 0 0 0-30.407111 67.271112zM704.426667 780.430222H314.766222a30.72 30.72 0 0 1-30.776889-30.748444 30.776889 30.776889 0 0 1 30.776889-30.776889h389.688889a30.776889 30.776889 0 0 1 30.776889 30.776889 30.862222 30.862222 0 0 1-30.805333 30.748444z" fill="#FFFFFF" p-id="22013"></path></svg>