<?xml version="1.0" standalone="no"?><!DOCTYPE svg PUBLIC "-//W3C//DTD SVG 1.1//EN" "http://www.w3.org/Graphics/SVG/1.1/DTD/svg11.dtd"><svg t="1761555356495" class="icon" viewBox="0 0 1024 1024" version="1.1" xmlns="http://www.w3.org/2000/svg" p-id="7399" width="128" height="128" xmlns:xlink="http://www.w3.org/1999/xlink"><path d="M512 515m-429 0a429 429 0 1 0 858 0 429 429 0 1 0-858 0Z" fill="#d81e06" p-id="7400" data-spm-anchor-id="a313x.search_index.0.i5.45e53a81JWcV11" class="selected"></path><path d="M700.31 428.12c-15.34-98-100.11-172.93-202.4-172.93-113.15 0-204.91 91.73-204.91 204.88 0 1.41 0 2.81 0.05 4.22a140 140 0 0 0 40.66 274h347.61a155.68 155.68 0 0 0 19-310.2zM401.48 526.9a31.6 31.6 0 0 1 44.72 0l29.48 29.47V415.11a31.63 31.63 0 1 1 63.25 0v141.26l29.48-29.47a31.63 31.63 0 0 1 44.73 44.72l-82.84 82.84a33.23 33.23 0 0 1-46 0l-82.83-82.84a31.6 31.6 0 0 1 0.01-44.72z" fill="#f1ecec" p-id="7401" data-spm-anchor-id="a313x.search_index.0.i3.45e53a81JWcV11" class=""></path></svg>