<?xml version="1.0" standalone="no"?><!DOCTYPE svg PUBLIC "-//W3C//DTD SVG 1.1//EN" "http://www.w3.org/Graphics/SVG/1.1/DTD/svg11.dtd"><svg t="1761870441290" class="icon" viewBox="0 0 1024 1024" version="1.1" xmlns="http://www.w3.org/2000/svg" p-id="7952" xmlns:xlink="http://www.w3.org/1999/xlink" width="128" height="128"><path d="M499.2 947.2A448 448 0 0 1 182.4256 182.4256a448 448 0 0 1 633.5488 633.5488A445.0816 445.0816 0 0 1 499.2 947.2z m-47.7952-549.5296v318.464a47.7952 47.7952 0 0 0 95.5904 0v-318.464l94.1568 94.1568a47.7952 47.7952 0 1 0 67.584-67.584L532.992 248.4736a47.7696 47.7696 0 0 0-67.584 0l-175.744 175.7696a47.7952 47.7952 0 0 0 67.584 67.584l94.1056-94.1312z" fill="#C0191F" p-id="7953"></path></svg>