<?xml version="1.0" standalone="no"?><!DOCTYPE svg PUBLIC "-//W3C//DTD SVG 1.1//EN" "http://www.w3.org/Graphics/SVG/1.1/DTD/svg11.dtd"><svg t="1766541618428" class="icon" viewBox="0 0 1024 1024" version="1.1" xmlns="http://www.w3.org/2000/svg" p-id="9136" xmlns:xlink="http://www.w3.org/1999/xlink" width="128" height="128"><path d="M512 1024c-218.197333 0-337.066667-29.866667-409.6-102.4S0 730.197333 0 512s29.866667-337.066667 102.4-409.6S293.802667 0 512 0s337.066667 29.866667 409.6 102.4S1024 293.802667 1024 512s-29.866667 337.066667-102.4 409.6S730.24 1024 512 1024zM385.28 389.888a19.157333 19.157333 0 0 0-8.021333 1.749333l-109.013334 40.96a19.754667 19.754667 0 0 0-12.245333 18.432v228.224a12.8 12.8 0 0 0 7.082667 11.477334l256 127.189333h0.384a12.288 12.288 0 0 0 5.333333 1.237333 12.416 12.416 0 0 0 5.376-1.237333h0.341333l256-127.189333a12.8 12.8 0 0 0 7.082667-11.477334v-231.296c0-1.578667 0-9.642667-13.525333-14.848l-107.562667-41.472a18.858667 18.858667 0 0 0-6.826667-1.28 19.285333 19.285333 0 0 0-17.962666 12.288 19.157333 19.157333 0 0 0 0.341333 14.677334 19.157333 19.157333 0 0 0 10.666667 10.154666l55.466666 21.333334a6.357333 6.357333 0 0 1 4.266667 5.930666 6.4 6.4 0 0 1-4.266667 5.973334l-187.093333 74.837333a6.314667 6.314667 0 0 1-2.346667 0.469333 6.314667 6.314667 0 0 1-2.389333-0.469333l-187.733333-75.136a6.357333 6.357333 0 0 1-4.266667-5.930667 6.4 6.4 0 0 1 4.266667-5.973333l56.106666-21.077333a19.072 19.072 0 0 0 13.44-14.848 19.157333 19.157333 0 0 0-7.04-18.730667 19.456 19.456 0 0 0-11.818666-3.968zM448 320a25.6 25.6 0 0 0-22.912 14.122667 25.6 25.6 0 0 0 2.432 26.837333l76.8 102.4a25.6 25.6 0 0 0 20.437333 10.24 25.813333 25.813333 0 0 0 20.48-10.24l76.8-102.4a25.6 25.6 0 0 0 2.432-26.837333 25.6 25.6 0 0 0-22.912-14.122667h-38.4V243.2a38.4 38.4 0 0 0-38.4-38.4 38.4 38.4 0 0 0-38.4 38.4v76.8z" fill="#788752" p-id="9137" data-spm-anchor-id="a313x.search_index.0.i0.2e813a81oS2pLE" class=""></path></svg>