<?xml version="1.0" standalone="no"?><!DOCTYPE svg PUBLIC "-//W3C//DTD SVG 1.1//EN" "http://www.w3.org/Graphics/SVG/1.1/DTD/svg11.dtd"><svg t="1763024569387" class="icon" viewBox="0 0 1024 1024" version="1.1" xmlns="http://www.w3.org/2000/svg" p-id="31281" xmlns:xlink="http://www.w3.org/1999/xlink" width="128" height="128"><path d="M512 30.11c266.141 0 481.89 215.749 481.89 481.89 0 266.14-215.749 481.89-481.89 481.89S30.11 778.14 30.11 512C30.11 245.859 245.859 30.11 512 30.11z m57.015 131.83l-0.126 1.377-0.152 1.345-0.005 0.021a57.243 57.243 0 0 1-0.605 3.74l-0.069 0.361-0.159 0.743-0.134 0.614-0.206 0.866-0.104 0.424-0.254 0.96-0.098 0.361-0.297 1.021-0.075 0.253-0.289 0.93-0.134 0.408-0.329 0.964-0.102 0.285-0.327 0.889-0.155 0.411-0.382 0.971-0.07 0.171-0.44 1.046-0.097 0.219-0.445 0.994-0.111 0.233-0.445 0.934-0.162 0.324-0.469 0.928-0.061 0.112-0.56 1.049-0.083 0.146-0.581 1.027-0.013 0.021a55.67 55.67 0 0 1-2.082 3.313l-0.746 1.077-0.002 0.007c-0.251 0.354-0.508 0.702-0.768 1.051a54.324 54.324 0 0 1-1.482 1.899l-0.156 0.195c-0.266 0.326-0.54 0.647-0.813 0.966l-0.778 0.889-0.108 0.121-0.695 0.757-0.249 0.268-0.566 0.59-0.376 0.385-0.597 0.593-0.342 0.333-0.648 0.616-0.271 0.251-0.72 0.654-0.308 0.272-0.598 0.52-0.48 0.406-0.599 0.495-0.347 0.278-0.691 0.547-0.393 0.303-0.671 0.504-0.387 0.283-0.675 0.484-0.51 0.353-0.58 0.397-0.501 0.331-0.642 0.417-0.424 0.266-0.711 0.438-0.044 0.028-1.048 0.619-0.085 0.047-1.122 0.627-0.025 0.014-1.166 0.613-0.031 0.018-1.148 0.573-0.096 0.045-0.24 0.112-0.95 0.445-0.067 0.03-1.053 0.463-0.1 0.041-0.615 0.255-0.649 0.266-0.532 0.206-0.818 0.312-0.39 0.14-0.814 0.288-0.72 0.239-0.573 0.184-0.571 0.178-0.825 0.246-0.584 0.165-0.657 0.177-0.613 0.16-0.91 0.221-0.361 0.084-1.001 0.219-0.394 0.08-0.83 0.16-0.698 0.127-0.632 0.104-0.652 0.104-0.869 0.121-0.558 0.073-0.789 0.091-0.612 0.064-0.738 0.067-0.709 0.061-0.078 0.006-1.248 0.078-0.141 0.007-1.324 0.047-0.072 0.003-1.408 0.018-1.405-0.017-0.071-0.003-1.326-0.047-0.141-0.007c-0.416-0.02-0.832-0.047-1.246-0.078l-0.078-0.006-0.709-0.061-0.742-0.067-0.586-0.063-0.825-0.095-0.528-0.069-0.886-0.123-0.653-0.104-0.633-0.105-0.675-0.121-0.884-0.171-0.32-0.064-1.018-0.223-0.5-0.117-0.693-0.169-0.721-0.184-0.695-0.19-0.529-0.148-0.859-0.256-0.512-0.157-0.688-0.223-0.607-0.201-0.901-0.32-0.329-0.118-0.877-0.333-0.452-0.176-0.677-0.274-0.652-0.272-0.37-0.16-0.896-0.397-0.01-0.004-1.101-0.515-0.098-0.048-1.146-0.57-0.035-0.018-1.164-0.613-0.024-0.014-1.124-0.629-1.008-0.593-0.141-0.082-0.64-0.396-0.573-0.358-0.387-0.253-0.75-0.493-0.096-0.063-0.834-0.575-0.096-0.069-0.708-0.508-0.372-0.272-0.67-0.504-0.402-0.309-0.602-0.474-0.477-0.387-0.623-0.518-0.324-0.271-0.711-0.619-0.267-0.235-0.739-0.67-0.255-0.237-0.684-0.649-0.246-0.242-0.716-0.709-0.262-0.268-0.627-0.653-0.264-0.283-0.679-0.739-0.136-0.153-0.748-0.852-0.048-0.057a57.856 57.856 0 0 1-2.41-3.016l-0.768-1.048-0.005-0.009-0.745-1.077-0.032-0.045-0.689-1.049-0.564-0.895-0.156-0.251-0.529-0.891-0.143-0.238a61.026 61.026 0 0 1-1.109-2.008l-0.209-0.397-0.344-0.682-0.26-0.521-0.365-0.766-0.192-0.415-0.372-0.823-0.173-0.394-0.37-0.878-0.141-0.344-0.365-0.932-0.127-0.335-0.313-0.85-0.158-0.452-0.309-0.901-0.114-0.354-0.277-0.88-0.139-0.467-0.264-0.908-0.066-0.253a36.388 36.388 0 0 1-0.283-1.069l-0.067-0.281-0.242-1.006-0.102-0.476-0.19-0.88-0.047-0.25-0.213-1.129c-0.075-0.431-0.15-0.864-0.216-1.297l-0.007-0.05c-0.068-0.45-0.129-0.901-0.188-1.355l-0.004-0.02-0.154-1.347-0.125-1.377c-55.409 8.956-106.516 30.756-150.173 62.244l0.802 0.96 0.082 0.102 0.272 0.344 0.579 0.735 0.826 1.092 0.007 0.011 0.786 1.098 0.048 0.067 0.718 1.055 0.018 0.026 0.62 0.96 0.11 0.173 0.415 0.672 0.363 0.599 0.389 0.673 0.24 0.417 0.467 0.848 0.203 0.378 0.365 0.698 0.292 0.571 0.335 0.689 0.236 0.49 0.352 0.764 0.219 0.483 0.299 0.688 0.241 0.572 0.31 0.768 0.18 0.456 0.287 0.759 0.192 0.532 0.253 0.709 0.221 0.659 0.203 0.622 0.188 0.612 0.207 0.681 0.182 0.646 0.182 0.653 0.169 0.657 0.157 0.629 0.139 0.597 0.18 0.789 0.248 1.202 0.016 0.082 0.229 1.273 0.002 0.015 0.203 1.291 0.009 0.052 0.164 1.245 0.015 0.118 0.128 1.179 0.002 0.03 0.078 0.871 0.041 0.491 0.052 0.814 0.03 0.5 0.032 0.811 0.021 0.572 0.011 0.632 0.012 0.718-0.003 0.626-0.011 0.755-0.015 0.595-0.024 0.657-0.034 0.73-0.039 0.659-0.045 0.623-0.061 0.729-0.059 0.622-0.071 0.657-0.091 0.764-0.057 0.43-0.125 0.891-0.082 0.53-0.124 0.747-0.101 0.561-0.141 0.761-0.115 0.556-0.17 0.798-0.011 0.052-0.258 1.106-0.013 0.05-0.283 1.101-0.048 0.187-0.028 0.105-0.348 1.226-0.011 0.039-0.39 1.258-0.009 0.023-0.41 1.227-0.03 0.089-0.141 0.387-0.333 0.91-0.028 0.075-0.442 1.136-0.215 0.514-0.315 0.755-0.175 0.396-0.396 0.878-0.24 0.51-0.305 0.636-0.292 0.586-0.361 0.709-0.289 0.547-0.316 0.584-0.378 0.677-0.309 0.535-0.374 0.634-0.331 0.545-0.379 0.607-0.385 0.597-0.385 0.586-0.423 0.623-0.303 0.438-0.612 0.854-0.19 0.262-0.627 0.835-0.253 0.328-0.538 0.679-0.383 0.476-0.445 0.532-0.473 0.562-0.057 0.065-0.826 0.934-0.095 0.105-0.901 0.972-0.05 0.052-0.981 1.005-1.006 0.981-0.052 0.05-0.97 0.901-0.106 0.095-0.934 0.826-0.065 0.057-0.562 0.473-0.532 0.445-0.476 0.383-0.679 0.538-0.328 0.253-0.835 0.627-0.262 0.19-0.854 0.612-0.439 0.303-0.622 0.423-0.586 0.385-0.614 0.396-0.529 0.33-0.688 0.418-0.474 0.28-0.672 0.385-0.607 0.34-0.595 0.322-0.547 0.289-0.743 0.381-0.504 0.251-0.77 0.367-0.415 0.194-0.887 0.4-0.396 0.175-0.755 0.315-0.514 0.215-1.136 0.442-0.075 0.028-1.042 0.381-0.255 0.093-0.087 0.03-1.228 0.41-0.021 0.009-1.259 0.39-0.041 0.011c-0.878 0.26-1.764 0.499-2.65 0.716l-0.125 0.03-1.174 0.27-0.383 0.082-0.867 0.18-0.677 0.125-0.648 0.117-0.67 0.11-0.601 0.095-0.839 0.117-0.484 0.064-0.72 0.084-0.701 0.076-0.57 0.054-0.782 0.065-0.584 0.041-0.686 0.041-0.715 0.034-0.673 0.024-0.577 0.015-0.768 0.011-0.623 0.003-0.851-0.011-0.39-0.009-0.839-0.028-0.652-0.028-0.439-0.026-0.891-0.058-0.071-0.005-1.12-0.095-0.075-0.009-0.689-0.073a64.566 64.566 0 0 1-2.011-0.253c-0.433-0.061-0.86-0.128-1.291-0.201l-0.019-0.005-1.27-0.229-0.905-0.185-0.379-0.077-0.151-0.032-1.126-0.26-0.067-0.018-0.646-0.162-0.734-0.188-0.443-0.123-0.846-0.238-0.581-0.177-0.661-0.206-0.748-0.244-0.476-0.16-0.772-0.27-0.564-0.206-0.745-0.285-0.411-0.16-0.828-0.335-0.512-0.216-0.711-0.31-0.53-0.237-0.663-0.305-0.604-0.288-0.675-0.333-0.479-0.244-0.723-0.374-0.488-0.264-0.739-0.408-0.435-0.249-0.739-0.43-0.402-0.244-0.804-0.496-0.219-0.138-0.921-0.597-0.023-0.016-1.062-0.722-0.061-0.043-1.104-0.792-0.005-0.004c-0.367-0.268-0.73-0.545-1.092-0.823l-0.032-0.026h-0.002l-0.032-0.026-0.032-0.025h-0.003l-0.032-0.026-0.032-0.025-0.035-0.026-0.032-0.025-0.034-0.026-0.032-0.025-0.033-0.026-0.002-0.002-0.032-0.024v-0.002l-0.032-0.023-0.002-0.002-0.032-0.026-0.033-0.026h-0.002l-0.03-0.025h-0.002l-0.032-0.026v-0.002l-0.033-0.023-0.002-0.002-0.032-0.024v-0.002l-0.032-0.026-0.032-0.025h-0.003l-0.032-0.026V306l-0.032-0.023-0.002-0.002-0.03-0.026h-0.003l-0.032-0.025-0.032-0.026-0.002-0.002-0.032-0.026-0.032-0.025-0.033-0.026-0.002-0.002-0.03-0.026h-0.002l-0.032-0.025-0.032-0.026v-0.002l-0.033-0.026h-0.002l-0.032-0.025v-0.002l-0.032-0.026-0.032-0.025h-0.003l-0.03-0.026-0.002-0.002-0.032-0.026-0.032-0.025v-0.003l-0.033-0.025h-0.002l-0.034-0.033v-0.002l-0.032-0.026-0.032-0.025v-0.002l-0.033-0.026-0.032-0.025-0.002-0.003-0.032-0.025-0.033-0.028-0.032-0.026-0.032-0.027-0.032-0.026v-0.002l-0.035-0.026-0.032-0.027-0.032-0.026-0.032-0.028-0.032-0.028-0.033-0.025-0.032-0.028-0.032-0.028-0.034-0.025-0.033-0.028-0.032-0.028-0.032-0.028-0.032-0.025-0.032-0.028-0.033-0.028-0.025-0.021c-31.479 43.657-53.271 94.765-62.228 150.171l1.375 0.126 1.325 0.151 0.041 0.006 1.355 0.19 0.037 0.007 0.036 0.004 0.035 0.007h0.002l0.034 0.004 0.037 0.007 0.037 0.007 0.036 0.004 0.037 0.007 0.034 0.006h0.003l0.034 0.005h0.002l0.034 0.006 0.037 0.007 0.037 0.004 0.034 0.007h0.002l0.035 0.007h0.002l0.035 0.006 0.036 0.005 0.037 0.006 0.034 0.007h0.002l0.035 0.007h0.002l0.035 0.006 0.036 0.005 0.037 0.007 0.034 0.006h0.003l0.034 0.007h0.002l0.034 0.006 0.037 0.007 0.035 0.007h0.002l0.034 0.006h0.002l0.035 0.005 0.036 0.006 0.035 0.007h0.002l0.034 0.007h0.003l0.034 0.006 0.037 0.007 0.036 0.006 0.035 0.007h0.002l0.034 0.007 0.037 0.006 0.035 0.007h0.002l0.034 0.007 0.037 0.006 0.036 0.007 0.035 0.007h0.002l0.034 0.006 0.037 0.007 0.037 0.007 0.034 0.006 0.037 0.007 0.036 0.009 0.035 0.006 0.037 0.007 0.036 0.007 0.034 0.006 0.037 0.007 0.037 0.007 0.034 0.008 0.037 0.007 0.036 0.007 0.035 0.006 0.037 0.007 0.036 0.009 0.034 0.006 0.037 0.007 0.422 0.082 0.726 0.153 0.637 0.139 0.775 0.186 0.534 0.13 0.865 0.229 0.456 0.123 0.888 0.26 0.404 0.118 0.942 0.299 0.32 0.104 0.882 0.301 0.508 0.18 0.739 0.272 0.474 0.179 0.807 0.318 0.469 0.19 0.83 0.352 0.327 0.144 0.914 0.41 0.326 0.153 0.824 0.394 0.479 0.238 0.746 0.378 0.376 0.199 0.782 0.417 0.461 0.258 0.741 0.421 0.267 0.158 0.896 0.533 0.155 0.098 0.958 0.601 0.016 0.012 1.033 0.681 0.061 0.041 1.07 0.741 0.004 0.005 1.058 0.771 0.027 0.021 0.03 0.021 0.028 0.021 0.028 0.021h0.002l0.028 0.022 0.028 0.021 0.027 0.021h0.003l0.028 0.021 0.027 0.021 0.028 0.021h0.002l0.028 0.021 0.028 0.022 0.028 0.023h0.002l0.028 0.021 0.027 0.021 0.028 0.021 0.028 0.022h0.002l0.028 0.021 0.028 0.021 0.027 0.021 0.028 0.023h0.002l0.028 0.021 0.028 0.022 0.028 0.021 0.027 0.021h0.003l0.027 0.023 0.028 0.021 0.028 0.021 0.028 0.022 0.028 0.021h0.002l0.028 0.023 0.027 0.021 0.028 0.021 0.028 0.023 0.028 0.022 0.027 0.021h0.003l0.027 0.021 0.028 0.023 0.028 0.021 0.028 0.022 0.028 0.023 0.027 0.021 0.028 0.021 0.028 0.024h0.002l0.026 0.021h0.002l0.028 0.023 0.027 0.021 0.028 0.022 0.028 0.023 0.028 0.021 0.028 0.023 0.027 0.021 0.028 0.024 0.028 0.021 0.028 0.021 0.027 0.023 0.028 0.022 0.028 0.023 0.028 0.021 0.028 0.023 0.027 0.021 0.028 0.024 0.028 0.021 0.028 0.023 0.276 0.223 0.601 0.504 0.441 0.372 0.631 0.556 0.331 0.294 0.609 0.56 0.426 0.396 0.461 0.445 0.534 0.521 0.346 0.348 0.592 0.607 0.484 0.508 0.318 0.344 0.609 0.671 0.337 0.38 0.448 0.515 0.486 0.577 0.399 0.482 0.396 0.493 0.435 0.547 0.439 0.572 0.36 0.48 0.406 0.558 0.411 0.57 0.342 0.493 0.408 0.599 0.337 0.513 0.407 0.624 0.047 0.072 0.604 0.968 0.089 0.147 0.613 1.042 0.053 0.088 0.622 1.118 0.018 0.032 0.614 1.163 0.013 0.028 0.575 1.152 0.043 0.091 0.091 0.194 0.471 1.008 0.197 0.447 0.34 0.776 0.222 0.536 0.301 0.734 0.175 0.452 0.336 0.887 0.173 0.478 0.233 0.666 0.239 0.715 0.226 0.689 0.164 0.539 0.229 0.765 0.156 0.552 0.216 0.802 0.137 0.527 0.212 0.876 0.102 0.438 0.201 0.923 0.097 0.465 0.16 0.835 0.106 0.579 0.141 0.852 0.079 0.513 0.143 1.016 0.044 0.32 0.121 1.059 0.045 0.422 0.065 0.739 0.063 0.733 0.036 0.579 0.053 0.828 0.002 0.052c0.023 0.438 0.037 0.88 0.047 1.323l0.003 0.071 0.018 1.405-0.018 1.405-0.003 0.071-0.047 1.325-0.007 0.14c-0.02 0.418-0.048 0.833-0.077 1.248l-0.007 0.077-0.061 0.71-0.067 0.741-0.063 0.586-0.095 0.825-0.069 0.527-0.124 0.887-0.104 0.653-0.105 0.633-0.121 0.675-0.171 0.884-0.065 0.32-0.222 1.019-0.117 0.499-0.169 0.694-0.184 0.72-0.189 0.696-0.149 0.529-0.255 0.858-0.158 0.512-0.223 0.688-0.201 0.607-0.32 0.901-0.118 0.329-0.333 0.878-0.176 0.451-0.274 0.677-0.272 0.653-0.16 0.369-0.397 0.896-0.004 0.011-0.515 1.101-0.048 0.097-0.57 1.146-0.018 0.035-0.614 1.165-0.013 0.023-0.629 1.124-0.593 1.008-0.082 0.141-0.396 0.64-0.358 0.573-0.253 0.387-0.493 0.75-0.063 0.096-0.575 0.834-0.069 0.095-0.508 0.71-0.272 0.371-0.504 0.671-0.309 0.401-0.474 0.602-0.387 0.478-0.517 0.622-0.272 0.325-0.618 0.711-0.236 0.266-0.67 0.739-0.237 0.255-0.627 0.659-0.331 0.34-0.593 0.597-0.385 0.374-0.586 0.564-0.283 0.264-0.739 0.679-0.153 0.137-0.852 0.747-0.057 0.048a57.856 57.856 0 0 1-3.016 2.41l-1.048 0.768-0.009 0.004-1.076 0.746-0.046 0.033-1.049 0.689-0.895 0.563-0.251 0.156-0.891 0.529-0.238 0.143c-0.661 0.383-1.331 0.75-2.008 1.109l-0.397 0.21-0.682 0.344-0.521 0.259-0.766 0.366-0.415 0.191-0.795 0.359-0.463 0.203-0.794 0.333-0.408 0.166-0.91 0.359-0.335 0.127-0.85 0.314-0.452 0.157-0.901 0.31-0.354 0.114-0.88 0.276-0.467 0.139-0.908 0.264-0.253 0.067c-0.354 0.097-0.709 0.194-1.07 0.282l-0.28 0.067-1.006 0.242-0.476 0.102-0.88 0.19-0.251 0.048-1.128 0.212-1.297 0.216-0.05 0.007-1.355 0.188-0.02 0.005-1.347 0.153-1.377 0.125c8.956 55.409 30.756 106.516 62.244 150.174l0.96-0.803 0.102-0.082 0.344-0.272 0.735-0.579 1.092-0.826 0.011-0.006 1.098-0.787 0.067-0.048 1.055-0.718 0.026-0.018 0.96-0.62 0.173-0.11 0.672-0.415 0.599-0.362 0.673-0.39 0.417-0.24 0.848-0.467 0.378-0.203 0.698-0.366 0.571-0.291 0.689-0.335 0.488-0.235 0.766-0.354 0.484-0.218 0.687-0.298 0.573-0.242 0.768-0.31 0.456-0.179 0.759-0.288 0.532-0.192 0.709-0.253 0.659-0.221 0.623-0.203 0.611-0.188 0.681-0.207 0.646-0.182 0.653-0.182 0.657-0.168 0.629-0.158 0.597-0.139 0.789-0.18 1.202-0.248 0.082-0.016 1.273-0.229 0.015-0.002 1.291-0.203 0.052-0.01 1.245-0.164 0.118-0.015 1.179-0.128 0.03-0.002 0.871-0.078 0.491-0.041 0.814-0.052 0.5-0.03 0.811-0.032 0.572-0.022 0.632-0.01 0.717-0.012 0.625 0.003 0.757 0.011 0.595 0.016 0.657 0.023 0.73 0.034 0.659 0.039 0.623 0.046 0.729 0.061 0.622 0.059 0.657 0.07 0.764 0.092 0.43 0.056 0.891 0.125 0.53 0.082 0.748 0.124 0.56 0.102 0.761 0.141 0.556 0.114 0.798 0.171 0.052 0.011 1.107 0.257 0.049 0.014 1.101 0.283 0.187 0.047 0.105 0.028 1.226 0.349 0.039 0.01 1.258 0.39 0.024 0.009 1.226 0.41 0.089 0.03 0.387 0.141 0.91 0.333 0.075 0.027 1.136 0.444 0.514 0.214 0.755 0.315 0.396 0.175 0.878 0.396 0.51 0.239 0.636 0.305 0.586 0.292 0.709 0.361 0.547 0.289 0.584 0.316 0.677 0.378 0.536 0.31 0.633 0.373 0.545 0.331 0.607 0.379 0.597 0.384 0.586 0.386 0.622 0.423 0.439 0.303 0.854 0.612 0.262 0.19 0.835 0.627 0.328 0.253 0.679 0.538 0.476 0.383 0.532 0.445 0.562 0.474 0.065 0.056 0.934 0.826 0.106 0.096 0.97 0.9 0.052 0.05 1.006 0.981 0.981 1.006 0.05 0.052 0.901 0.97 0.095 0.106 0.826 0.935 0.057 0.064 0.473 0.563 0.445 0.531 0.383 0.476 0.538 0.679 0.253 0.328 0.627 0.835 0.19 0.262 0.612 0.854 0.303 0.438 0.423 0.623 0.385 0.586 0.396 0.614 0.33 0.529 0.417 0.688 0.281 0.474 0.385 0.672 0.34 0.607 0.322 0.595 0.289 0.547 0.381 0.744 0.251 0.503 0.367 0.77 0.194 0.416 0.4 0.887 0.175 0.395 0.315 0.755 0.215 0.515 0.442 1.135 0.028 0.076 0.381 1.041 0.093 0.256 0.03 0.086 0.41 1.229 0.009 0.021 0.39 1.258 0.011 0.041c0.26 0.878 0.499 1.764 0.716 2.65l0.03 0.125 0.27 1.174 0.083 0.383 0.179 0.867 0.126 0.677 0.116 0.648 0.11 0.67 0.095 0.601 0.117 0.84 0.064 0.484 0.085 0.719 0.075 0.701 0.054 0.57 0.065 0.783 0.041 0.583 0.041 0.686 0.034 0.716 0.024 0.672 0.015 0.577 0.011 0.768 0.003 0.622-0.012 0.853-0.008 0.39-0.028 0.838-0.028 0.653-0.026 0.438-0.058 0.891-0.005 0.071-0.095 1.12-0.009 0.075-0.073 0.69c-0.074 0.672-0.158 1.34-0.253 2.01-0.061 0.433-0.128 0.861-0.201 1.291l-0.004 0.02-0.229 1.269-0.184 0.905-0.078 0.379-0.032 0.151-0.26 1.126-0.018 0.067-0.162 0.646-0.188 0.736-0.123 0.443-0.238 0.845-0.177 0.581-0.206 0.662-0.244 0.748-0.16 0.475-0.27 0.772-0.206 0.563-0.285 0.746-0.16 0.411-0.335 0.827-0.216 0.514-0.31 0.711-0.237 0.529-0.305 0.664-0.288 0.603-0.333 0.675-0.244 0.48-0.374 0.722-0.264 0.488-0.408 0.739-0.249 0.435-0.43 0.739-0.244 0.402-0.495 0.805-0.139 0.218-0.597 0.921-0.016 0.023-0.722 1.063-0.043 0.06-0.791 1.104-0.005 0.005c-0.268 0.367-0.545 0.73-0.823 1.092l-0.026 0.032v0.002l-0.025 0.032-0.026 0.032v0.002l-0.025 0.033-0.026 0.032-0.026 0.034-0.025 0.033-0.026 0.035-0.025 0.031-0.026 0.033-0.002 0.002-0.024 0.032h-0.002l-0.023 0.032-0.002 0.002-0.026 0.033-0.025 0.032v0.002l-0.026 0.03v0.002l-0.025 0.033h-0.003l-0.023 0.032-0.002 0.002-0.024 0.032h-0.002l-0.025 0.032-0.026 0.032v0.002l-0.025 0.033H306l-0.023 0.032-0.002 0.003-0.026 0.029v0.002l-0.025 0.033-0.026 0.032-0.002 0.003-0.026 0.031-0.025 0.033-0.026 0.032-0.002 0.002-0.026 0.03v0.002l-0.025 0.033-0.026 0.032h-0.002l-0.026 0.032v0.002l-0.025 0.033h-0.002l-0.026 0.031-0.025 0.033v0.002l-0.026 0.03-0.002 0.002-0.026 0.032-0.025 0.033h-0.003l-0.025 0.032v0.002l-0.026 0.032h-0.002l-0.025 0.032-0.026 0.032h-0.002l-0.026 0.033-0.026 0.032-0.002 0.002-0.025 0.032-0.028 0.033-0.025 0.031-0.028 0.033-0.026 0.032h-0.002l-0.026 0.034-0.027 0.033-0.026 0.032-0.028 0.032-0.028 0.033-0.025 0.031-0.028 0.033-0.028 0.032-0.025 0.034-0.028 0.033-0.028 0.032-0.028 0.032-0.025 0.033-0.028 0.031-0.028 0.033-0.021 0.025c43.657 31.479 94.765 53.271 150.171 62.228l0.125-1.375 0.152-1.325 0.006-0.041 0.19-1.355 0.007-0.037 0.004-0.036 0.007-0.034v-0.003l0.004-0.034 0.007-0.037 0.006-0.037 0.005-0.036 0.007-0.037 0.006-0.034v-0.002l0.004-0.035v-0.002l0.007-0.035 0.007-0.036 0.004-0.036 0.007-0.035v-0.002l0.007-0.035v-0.002l0.006-0.035 0.004-0.036 0.008-0.036 0.006-0.035v-0.002l0.007-0.035v-0.002l0.006-0.034 0.005-0.037 0.006-0.036 0.007-0.035v-0.002l0.007-0.035v-0.002l0.006-0.035 0.007-0.036 0.007-0.034v-0.002l0.006-0.035v-0.002l0.004-0.035 0.007-0.036 0.007-0.034v-0.003l0.006-0.034v-0.002l0.007-0.035 0.007-0.037 0.006-0.036 0.007-0.034v-0.003l0.007-0.034 0.006-0.037 0.007-0.034v-0.003l0.007-0.034 0.006-0.036 0.006-0.037 0.008-0.035v-0.002l0.006-0.034 0.007-0.037 0.007-0.036 0.006-0.035 0.007-0.037 0.009-0.036 0.006-0.034 0.007-0.037 0.007-0.037 0.006-0.035 0.007-0.036 0.007-0.036 0.008-0.035 0.007-0.037 0.007-0.037 0.006-0.034 0.007-0.036 0.009-0.037 0.006-0.035 0.007-0.036 0.082-0.422 0.153-0.726 0.139-0.636 0.186-0.776 0.131-0.534 0.229-0.864 0.123-0.457 0.26-0.888 0.119-0.404 0.298-0.942 0.104-0.32 0.301-0.882 0.179-0.509 0.273-0.738 0.18-0.474 0.316-0.807 0.191-0.469 0.352-0.83 0.143-0.327 0.411-0.914 0.153-0.326 0.394-0.824 0.237-0.479 0.379-0.746 0.199-0.376 0.417-0.783 0.257-0.46 0.422-0.741 0.158-0.266 0.533-0.897 0.098-0.155 0.601-0.958 0.011-0.015 0.682-1.033 0.041-0.062 0.741-1.069 0.005-0.005 0.771-1.058 0.021-0.027 0.021-0.03 0.021-0.028 0.021-0.027v-0.003l0.021-0.028 0.021-0.027 0.021-0.028v-0.003l0.022-0.027 0.021-0.028 0.021-0.028v-0.002l0.021-0.027 0.021-0.029 0.024-0.027v-0.002l0.021-0.029 0.021-0.027 0.021-0.028 0.021-0.028v-0.002l0.021-0.027 0.021-0.029 0.021-0.027 0.024-0.028v-0.003l0.021-0.027 0.022-0.028 0.021-0.028 0.021-0.027v-0.002l0.023-0.029 0.021-0.027 0.021-0.028 0.021-0.028 0.021-0.027v-0.002l0.024-0.029 0.021-0.027 0.021-0.028 0.024-0.028 0.021-0.027 0.021-0.029v-0.002l0.021-0.027 0.023-0.028 0.021-0.028 0.021-0.027 0.024-0.029 0.021-0.027 0.021-0.028 0.024-0.028v-0.002l0.021-0.025v-0.002l0.023-0.029 0.021-0.027 0.021-0.028 0.023-0.028 0.022-0.027 0.023-0.029 0.022-0.027 0.023-0.028 0.021-0.028 0.021-0.027 0.023-0.029 0.021-0.027 0.023-0.028 0.022-0.028 0.023-0.027 0.022-0.029 0.023-0.027 0.021-0.028 0.023-0.028 0.223-0.276 0.504-0.601 0.371-0.441 0.557-0.631 0.293-0.331 0.561-0.61 0.396-0.426 0.497-0.514 0.404-0.415 0.497-0.495 0.511-0.498 0.521-0.494 0.343-0.318 0.671-0.609 0.38-0.337 0.515-0.448 0.577-0.486 0.481-0.399 0.494-0.396 0.547-0.435 0.572-0.438 0.48-0.361 0.557-0.406 0.571-0.411 0.493-0.341 0.599-0.409 0.513-0.337 0.625-0.406 0.07-0.049 0.969-0.603 0.147-0.089 1.042-0.613 0.088-0.053 1.118-0.622 0.032-0.017 1.163-0.614 0.028-0.013 1.152-0.576 0.091-0.043 0.194-0.09 1.008-0.473 0.056-0.025 1.058-0.465 0.073-0.03 0.663-0.276 0.641-0.26 0.456-0.178 0.886-0.334 0.479-0.174 0.666-0.232 0.715-0.24 0.689-0.225 0.539-0.165 0.766-0.229 0.551-0.155 0.802-0.216 0.527-0.137 0.876-0.211 0.438-0.102 0.923-0.201 0.465-0.098 0.834-0.16 0.58-0.105 0.852-0.141 0.512-0.08 1.017-0.143 0.319-0.043 1.061-0.121 0.421-0.046 0.739-0.065 0.732-0.063 0.58-0.037 0.828-0.051 0.052-0.002c0.438-0.024 0.88-0.037 1.323-0.049l0.071-0.002 1.405-0.017 1.404 0.017 0.072 0.002 1.324 0.049 0.141 0.006c0.418 0.02 0.832 0.047 1.248 0.078l0.078 0.006 0.709 0.061 0.74 0.067 0.586 0.063 0.826 0.095 0.527 0.07 0.887 0.123 0.652 0.104 0.635 0.105 0.674 0.121 0.884 0.171 0.32 0.065 1.019 0.223 0.499 0.116 0.694 0.169 0.719 0.184 0.697 0.19 0.529 0.149 0.857 0.255 0.513 0.157 0.688 0.223 0.608 0.201 0.9 0.32 0.329 0.119 0.878 0.332 0.447 0.174 0.766 0.311 0.531 0.221 0.506 0.223 0.795 0.353 0.012 0.005 1.1 0.514 0.098 0.048 1.146 0.571 0.034 0.017 1.165 0.614 0.023 0.013 1.125 0.629 1.007 0.593 0.141 0.082 0.64 0.396 0.573 0.358 0.387 0.254 0.75 0.492 0.095 0.063 0.835 0.575 0.095 0.069 0.709 0.508 0.372 0.272 0.671 0.504 0.401 0.31 0.601 0.473 0.479 0.387 0.623 0.518 0.324 0.271 0.711 0.619 0.266 0.235 0.739 0.67 0.255 0.238 0.641 0.607 0.443 0.435 0.453 0.449 0.48 0.493 0.516 0.536 0.265 0.283 0.679 0.739 0.137 0.153 0.748 0.852 0.047 0.057a57.856 57.856 0 0 1 2.41 3.016l0.768 1.049 0.004 0.008 0.746 1.077 0.033 0.046 0.689 1.048 0.564 0.896 0.154 0.25 0.53 0.891 0.143 0.238c0.383 0.661 0.751 1.331 1.109 2.008l0.21 0.398 0.344 0.681 0.259 0.521 0.366 0.766 0.191 0.415 0.359 0.796 0.203 0.462 0.333 0.794 0.166 0.408 0.359 0.91 0.128 0.335 0.313 0.851 0.158 0.451 0.309 0.901 0.115 0.354 0.276 0.88 0.139 0.467 0.264 0.908 0.067 0.253c0.097 0.354 0.193 0.709 0.283 1.07l0.066 0.281 0.242 1.005 0.102 0.476 0.19 0.879 0.048 0.252 0.211 1.128 0.217 1.298 0.006 0.049 0.188 1.355 0.005 0.02 0.152 1.348 0.126 1.377c55.409-8.957 106.517-30.756 150.174-62.245l-0.803-0.96-0.082-0.102-0.272-0.344-0.579-0.734-0.826-1.092-0.006-0.012-0.787-1.098-0.048-0.066-0.717-1.056-0.018-0.026-0.621-0.959-0.109-0.174-0.416-0.672-0.363-0.599-0.389-0.673-0.24-0.417-0.467-0.847-0.203-0.379-0.365-0.698-0.292-0.571-0.335-0.689-0.236-0.488-0.352-0.766-0.219-0.484-0.298-0.688-0.242-0.572-0.31-0.768-0.18-0.456-0.287-0.759-0.192-0.531-0.253-0.709-0.221-0.66-0.203-0.623-0.188-0.611-0.208-0.681-0.182-0.646-0.182-0.653-0.169-0.656-0.157-0.629-0.139-0.598-0.179-0.789-0.249-1.201-0.015-0.082-0.229-1.273-0.003-0.016-0.203-1.291-0.008-0.051-0.164-1.246-0.016-0.119-0.127-1.178-0.003-0.03-0.077-0.871-0.041-0.491-0.053-0.814-0.029-0.499-0.033-0.812-0.021-0.572-0.011-0.631-0.011-0.719 0.002-0.624 0.011-0.757 0.015-0.594 0.024-0.658 0.034-0.73 0.039-0.659 0.045-0.622 0.061-0.729 0.059-0.623 0.071-0.657 0.091-0.763 0.057-0.431 0.125-0.891 0.082-0.53 0.124-0.748 0.101-0.56 0.141-0.761 0.115-0.556 0.171-0.798 0.011-0.052 0.257-1.106 0.013-0.051 0.283-1.1 0.049-0.186 0.027-0.106 0.348-1.226 0.012-0.039 0.389-1.258 0.008-0.023 0.412-1.227 0.029-0.088 0.141-0.388 0.333-0.909 0.028-0.076 0.443-1.135 0.214-0.515 0.315-0.755 0.176-0.395 0.395-0.879 0.24-0.51 0.305-0.636 0.292-0.585 0.361-0.71 0.29-0.547 0.315-0.583 0.378-0.678 0.309-0.535 0.375-0.634 0.33-0.545 0.379-0.607 0.385-0.597 0.385-0.586 0.424-0.623 0.303-0.438 0.611-0.854 0.19-0.262 0.627-0.835 0.253-0.328 0.538-0.679 0.383-0.476 0.445-0.531 0.474-0.563 0.057-0.064 0.825-0.935 0.095-0.106 0.902-0.97 0.049-0.052 0.982-1.006 1.005-0.981 0.052-0.05 0.971-0.9 0.105-0.096 0.934-0.826 0.065-0.056 0.562-0.474 0.532-0.445 0.476-0.383 0.68-0.538 0.328-0.253 0.834-0.627 0.262-0.19 0.854-0.612 0.439-0.303 0.622-0.423 0.586-0.386 0.614-0.395 0.529-0.331 0.688-0.417 0.474-0.281 0.673-0.385 0.607-0.34 0.594-0.322 0.547-0.289 0.744-0.381 0.504-0.25 0.77-0.368 0.415-0.194 0.886-0.4 0.396-0.175 0.754-0.315 0.515-0.214 1.135-0.444 0.075-0.027 1.043-0.381 0.254-0.093 0.087-0.03 1.228-0.41 0.021-0.009 1.259-0.39 0.041-0.01c0.878-0.26 1.765-0.5 2.65-0.716l0.126-0.03 1.174-0.271 0.383-0.082 0.866-0.18 0.677-0.125 0.648-0.117 0.67-0.11 0.602-0.095 0.838-0.117 0.484-0.064 0.721-0.085 0.7-0.075 0.571-0.054 0.781-0.064 0.584-0.042 0.686-0.041 0.716-0.034 0.672-0.023 0.577-0.016 0.768-0.011 0.623-0.003 0.852 0.012 0.389 0.008 0.84 0.029 0.652 0.027 0.438 0.025 0.891 0.059 0.071 0.005 1.12 0.095 0.075 0.009 0.689 0.073a61.688 61.688 0 0 1 3.302 0.454l0.02 0.005 1.269 0.229 0.906 0.184 0.378 0.078 0.151 0.033 1.127 0.259 0.066 0.017 0.646 0.162 0.734 0.189 0.443 0.123 0.846 0.237 0.582 0.177 0.661 0.206 0.747 0.244 0.477 0.16 0.771 0.271 0.564 0.205 0.746 0.285 0.41 0.16 0.828 0.335 0.512 0.216 0.712 0.31 0.529 0.237 0.664 0.305 0.603 0.288 0.675 0.333 0.479 0.244 0.723 0.374 0.488 0.264 0.74 0.408 0.434 0.249 0.74 0.43 0.401 0.245 0.804 0.495 0.219 0.138 0.921 0.597 0.024 0.016 1.061 0.722 0.061 0.043 1.105 0.792 0.004 0.004c0.367 0.268 0.73 0.545 1.092 0.824l0.032 0.025h0.003l0.031 0.025 0.033 0.026h0.002l0.032 0.026 0.032 0.025 0.035 0.026 0.032 0.026 0.034 0.025 0.033 0.025 0.031 0.026 0.003 0.002 0.032 0.024v0.002l0.033 0.023 0.002 0.002 0.032 0.026 0.032 0.026h0.002l0.031 0.025h0.002l0.032 0.025v0.003l0.032 0.023 0.002 0.003 0.033 0.023v0.002l0.031 0.026 0.033 0.025h0.002l0.032 0.026v0.002l0.032 0.023 0.002 0.002 0.031 0.026h0.002l0.032 0.026 0.032 0.025 0.002 0.002 0.033 0.026 0.031 0.026 0.033 0.025 0.002 0.002 0.03 0.026h0.003l0.031 0.026 0.033 0.025v0.002l0.032 0.026h0.003l0.031 0.026v0.002l0.033 0.025 0.032 0.025h0.002l0.03 0.026 0.002 0.003 0.033 0.025 0.032 0.025v0.003l0.032 0.026h0.002l0.033 0.025v0.002l0.031 0.026 0.033 0.025v0.003l0.032 0.025 0.032 0.025 0.002 0.003 0.033 0.026 0.031 0.027 0.033 0.026 0.032 0.028 0.032 0.025v0.002l0.035 0.026 0.032 0.028 0.032 0.025 0.033 0.028 0.031 0.028 0.033 0.025 0.032 0.028 0.032 0.028 0.035 0.025 0.032 0.028 0.032 0.028 0.032 0.027 0.032 0.027 0.033 0.027 0.032 0.028 0.026 0.021 0.015-0.021 0.474-0.661c31.214-43.509 52.83-94.369 61.738-149.488l-1.375-0.125-1.324-0.151-0.041-0.007-1.355-0.19-0.037-0.006-0.037-0.005-0.035-0.006h-0.002l-0.034-0.005-0.037-0.007-0.036-0.006-0.037-0.004-0.037-0.007-0.034-0.007h-0.002l-0.034-0.004h-0.003l-0.034-0.007-0.037-0.007-0.037-0.004-0.034-0.007h-0.002l-0.034-0.006h-0.003l-0.034-0.007-0.037-0.004-0.037-0.007-0.034-0.007h-0.003l-0.034-0.006h-0.001l-0.035-0.007-0.037-0.004-0.037-0.007-0.033-0.007h-0.003l-0.034-0.006h-0.003l-0.034-0.007-0.037-0.007-0.034-0.006h-0.003l-0.034-0.007h-0.002l-0.034-0.004-0.037-0.007-0.035-0.007h-0.002l-0.034-0.006h-0.003l-0.034-0.007-0.036-0.007-0.037-0.006-0.035-0.007h-0.002l-0.034-0.007-0.036-0.006-0.035-0.007h-0.002l-0.035-0.006-0.037-0.007-0.036-0.007-0.034-0.006h-0.002l-0.035-0.007-0.037-0.007-0.036-0.006-0.034-0.007-0.037-0.006-0.037-0.009-0.035-0.007-0.036-0.007-0.037-0.006-0.034-0.007-0.037-0.007-0.037-0.006-0.034-0.009-0.036-0.007-0.037-0.006-0.035-0.007-0.036-0.007-0.037-0.009-0.034-0.006-0.037-0.007-0.422-0.082-0.726-0.153-0.636-0.139-0.776-0.186-0.534-0.13-0.864-0.229-0.456-0.123-0.889-0.259-0.404-0.119-0.942-0.299-0.32-0.104-0.882-0.3-0.508-0.18-0.74-0.272-0.473-0.18-0.807-0.317-0.469-0.19-0.83-0.353-0.326-0.143-0.914-0.411-0.327-0.153-0.823-0.394-0.48-0.237-0.746-0.379-0.376-0.198-0.782-0.417-0.461-0.258-0.741-0.422-0.266-0.157-0.897-0.534-0.156-0.098-0.957-0.601-0.016-0.011-1.033-0.681-0.061-0.042-1.07-0.741-0.004-0.004-1.057-0.772-0.028-0.021-0.03-0.021-0.028-0.021-0.028-0.021h-0.002l-0.027-0.021-0.029-0.021-0.027-0.022h-0.002l-0.028-0.021-0.028-0.021-0.027-0.021h-0.003l-0.028-0.021-0.027-0.021-0.028-0.024h-0.003l-0.027-0.021-0.028-0.021-0.028-0.021-0.027-0.021h-0.002l-0.029-0.021-0.027-0.021-0.028-0.022-0.028-0.023h-0.002l-0.028-0.021-0.028-0.021-0.027-0.021-0.028-0.022h-0.003l-0.027-0.023-0.028-0.021-0.028-0.021-0.027-0.021-0.028-0.021h-0.003l-0.027-0.024-0.028-0.021-0.028-0.021-0.028-0.023-0.028-0.021-0.027-0.021h-0.002l-0.028-0.022-0.028-0.023-0.027-0.021-0.029-0.021-0.027-0.024-0.028-0.021-0.028-0.021-0.027-0.023h-0.002l-0.027-0.022h-0.002l-0.027-0.023-0.028-0.021-0.028-0.021-0.027-0.023-0.029-0.021-0.027-0.024-0.028-0.021-0.028-0.023-0.027-0.021-0.029-0.022-0.027-0.023-0.028-0.021-0.028-0.023-0.027-0.022-0.029-0.023-0.027-0.021-0.028-0.023-0.028-0.021-0.027-0.024-0.277-0.223-0.601-0.504-0.44-0.371-0.632-0.556-0.331-0.295-0.609-0.56-0.426-0.396-0.515-0.497-0.415-0.404-0.495-0.497-0.497-0.51-0.495-0.521-0.317-0.344-0.61-0.67-0.337-0.381-0.447-0.515-0.486-0.577-0.4-0.481-0.396-0.493-0.435-0.547-0.439-0.573-0.36-0.479-0.406-0.558-0.411-0.571-0.342-0.492-0.408-0.6-0.337-0.512-0.407-0.625-0.047-0.071-0.604-0.969-0.088-0.146-0.614-1.042-0.052-0.089-0.623-1.118-0.018-0.032-0.613-1.163-0.014-0.028-0.574-1.152-0.043-0.09-0.092-0.195-0.471-1.007-0.025-0.057-0.465-1.057-0.031-0.073-0.276-0.664-0.259-0.64-0.178-0.456-0.336-0.887-0.172-0.478-0.234-0.666-0.239-0.716-0.226-0.689-0.164-0.538-0.229-0.766-0.156-0.551-0.216-0.803-0.136-0.527-0.213-0.875-0.102-0.439-0.201-0.923-0.097-0.465-0.16-0.834-0.105-0.58-0.141-0.852-0.08-0.513-0.144-1.016-0.043-0.32-0.121-1.059-0.045-0.422-0.064-0.739-0.063-0.732-0.037-0.58-0.052-0.827-0.003-0.053c-0.023-0.438-0.036-0.88-0.047-1.322l-0.002-0.071-0.033-1.412 0.018-1.405 0.002-0.071 0.047-1.325 0.007-0.141c0.02-0.417 0.048-0.832 0.078-1.247l0.007-0.078 0.061-0.709 0.066-0.739 0.064-0.612 0.092-0.789 0.073-0.558 0.12-0.869 0.104-0.652 0.104-0.632 0.128-0.698 0.16-0.83 0.08-0.394 0.218-1 0.085-0.361 0.22-0.91 0.16-0.614 0.177-0.657 0.164-0.584 0.247-0.825 0.177-0.571 0.185-0.572 0.239-0.72 0.288-0.815 0.141-0.389 0.312-0.819 0.205-0.532 0.266-0.648 0.256-0.616 0.041-0.1 0.463-1.053 0.029-0.066 0.445-0.952 0.113-0.239 0.045-0.096 0.572-1.147 0.018-0.032 0.614-1.165 0.013-0.026 0.627-1.122 0.048-0.084 0.618-1.049 0.027-0.043 0.439-0.712 0.266-0.423 0.418-0.643 0.33-0.501 0.398-0.58 0.352-0.51 0.484-0.675 0.283-0.387 0.504-0.67 0.303-0.394 0.547-0.692 0.279-0.346 0.494-0.599 0.406-0.479 0.52-0.6 0.272-0.307 0.655-0.72 0.25-0.271 0.598-0.629 0.438-0.447 0.449-0.454 0.491-0.478 0.541-0.521 0.268-0.248 0.756-0.696 0.121-0.108 0.889-0.778 0.967-0.813 0.194-0.155a59.67 59.67 0 0 1 2.95-2.251l0.007-0.002 1.077-0.746a56.84 56.84 0 0 1 3.313-2.081l0.022-0.014 1.026-0.581 0.147-0.082 1.048-0.561 0.112-0.061 0.928-0.469 0.324-0.162 0.934-0.445 0.234-0.11 0.959-0.431 0.29-0.127 0.971-0.409 0.235-0.097 0.945-0.372 0.41-0.155 0.889-0.327 0.285-0.102 0.965-0.328 0.408-0.134 0.93-0.29 0.253-0.076 1.021-0.296 0.36-0.097 0.96-0.256 0.424-0.104 0.867-0.205 0.613-0.134 0.744-0.16 0.361-0.069a57.543 57.543 0 0 1 3.739-0.605l0.022-0.004 1.344-0.154 1.377-0.125c-8.963-55.406-30.764-106.512-62.248-150.169l-0.026 0.021a59.555 59.555 0 0 1-2.114 1.715l-1.092 0.823-0.004 0.004c-0.365 0.269-0.733 0.534-1.105 0.792l-0.061 0.043-1.061 0.722-0.024 0.016-0.921 0.597-0.219 0.138-0.804 0.496-0.401 0.244-0.74 0.43-0.434 0.249-0.74 0.408-0.488 0.264-0.723 0.374-0.479 0.244-0.675 0.333-0.603 0.288-0.664 0.305-0.529 0.237-0.712 0.31-0.512 0.216-0.828 0.335-0.41 0.16-0.746 0.285-0.564 0.206-0.771 0.27-0.477 0.16-0.747 0.244-0.661 0.206-0.582 0.177-0.846 0.238-0.443 0.123-0.734 0.188-0.646 0.162-0.066 0.018a40.75 40.75 0 0 1-1.127 0.26l-0.151 0.032-0.378 0.077-0.906 0.185-1.269 0.229-0.02 0.005-1.291 0.201c-0.667 0.097-1.338 0.179-2.011 0.253l-0.689 0.073-0.075 0.009-1.12 0.095-0.071 0.005-0.891 0.058-0.438 0.026-0.652 0.028-0.84 0.028-0.389 0.009-0.852 0.011-0.623-0.003-0.768-0.011-0.577-0.015-0.672-0.024-0.716-0.034-0.686-0.041-0.584-0.041-0.781-0.065-0.571-0.054-0.7-0.076-0.721-0.084-0.484-0.064-0.838-0.117-0.602-0.095-0.67-0.11-0.648-0.117-0.677-0.125-0.866-0.18-0.383-0.082-1.174-0.27-0.126-0.03a60.937 60.937 0 0 1-2.65-0.716l-0.041-0.011-1.259-0.39-0.021-0.009-1.228-0.41-0.087-0.03-0.254-0.093-1.043-0.381-0.075-0.028-1.135-0.442-0.515-0.215-0.754-0.315-0.396-0.175-0.886-0.4-0.415-0.194-0.77-0.367-0.504-0.251-0.744-0.381-0.547-0.289-0.594-0.322-0.607-0.34-0.673-0.385-0.474-0.28-0.688-0.418-0.529-0.33-0.614-0.396-0.586-0.385-0.622-0.423-0.439-0.303-0.854-0.612-0.262-0.19-0.834-0.627-0.328-0.253-0.68-0.538-0.476-0.383-0.532-0.445-0.562-0.473-0.065-0.057-0.934-0.826-0.105-0.095-0.971-0.901-0.052-0.05-1.005-0.981-0.982-1.005-0.049-0.052-0.902-0.972-0.095-0.105-0.825-0.934-0.057-0.065-0.474-0.562-0.445-0.532-0.383-0.476-0.538-0.679-0.253-0.328-0.627-0.835-0.19-0.262-0.611-0.854-0.303-0.438-0.424-0.623-0.385-0.586-0.396-0.614-0.331-0.529-0.417-0.688-0.281-0.474-0.385-0.672-0.339-0.607-0.322-0.595-0.29-0.547-0.38-0.744-0.252-0.503-0.367-0.77-0.194-0.415-0.399-0.887-0.176-0.396-0.315-0.755-0.214-0.514-0.443-1.136-0.028-0.075-0.38-1.042-0.094-0.255-0.029-0.087-0.412-1.229-0.008-0.021-0.389-1.258-0.012-0.041a57.606 57.606 0 0 1-0.715-2.65l-0.03-0.125-0.271-1.174-0.082-0.383-0.18-0.867-0.125-0.677-0.117-0.648-0.109-0.67-0.096-0.601-0.117-0.839-0.064-0.484-0.084-0.72-0.076-0.701-0.054-0.57-0.065-0.782-0.041-0.584-0.041-0.686-0.034-0.716-0.024-0.672-0.015-0.577-0.011-0.765-0.002-0.625 0.011-0.854 0.009-0.387 0.027-0.839 0.029-0.652 0.025-0.439 0.059-0.891 0.004-0.071 0.096-1.12 0.008-0.075 0.074-0.689c0.073-0.673 0.158-1.341 0.252-2.011l0.201-1.291 0.005-0.019 0.229-1.27 0.184-0.905 0.078-0.379 0.031-0.151 0.26-1.126 0.018-0.067 0.162-0.646 0.188-0.734 0.124-0.443 0.237-0.846 0.178-0.581 0.205-0.661 0.244-0.749 0.16-0.476 0.271-0.771 0.205-0.564 0.285-0.745 0.16-0.411 0.335-0.828 0.217-0.512 0.309-0.712 0.238-0.529 0.305-0.664 0.287-0.603 0.333-0.675 0.244-0.479 0.374-0.723 0.264-0.488 0.408-0.739 0.249-0.435 0.431-0.739 0.244-0.402 0.494-0.804 0.139-0.219 0.598-0.921 0.015-0.023 0.722-1.062 0.043-0.061 0.792-1.104 0.004-0.005c0.269-0.367 0.545-0.73 0.823-1.092l0.026-0.032v-0.002l0.026-0.032 0.025-0.032v-0.003l0.026-0.032 0.026-0.032 0.025-0.034 0.025-0.033 0.026-0.034 0.026-0.032 0.025-0.033 0.002-0.002 0.023-0.032h0.003l0.024-0.032 0.002-0.002 0.025-0.033 0.025-0.032v-0.002l0.026-0.03v-0.002l0.026-0.032h0.002l0.023-0.032 0.002-0.003 0.024-0.032h0.002l0.026-0.032 0.025-0.032v-0.003l0.026-0.032h0.002l0.024-0.032 0.002-0.002 0.025-0.03v-0.003l0.026-0.032 0.026-0.032 0.002-0.002 0.025-0.032 0.025-0.033 0.026-0.032 0.003-0.002 0.025-0.03v-0.002l0.025-0.032 0.026-0.033h0.002l0.026-0.032v-0.002l0.025-0.032h0.003l0.025-0.032 0.026-0.033v-0.002l0.025-0.03 0.002-0.002 0.027-0.032 0.025-0.032h0.002l0.025-0.032v-0.003l0.026-0.032h0.002l0.026-0.032 0.025-0.032h0.002l0.027-0.033 0.025-0.032 0.002-0.002 0.025-0.032 0.028-0.032 0.026-0.033 0.027-0.032 0.027-0.032h0.002l0.025-0.035 0.028-0.032 0.025-0.032 0.028-0.032 0.028-0.032 0.026-0.033 0.027-0.032 0.028-0.032 0.026-0.034 0.027-0.033 0.028-0.032 0.028-0.032 0.025-0.032 0.028-0.032 0.028-0.033 0.021-0.025c-43.634-31.505-94.736-53.307-150.145-62.268zM512 283.211c-126.357 0-228.789 102.432-228.789 228.789 0 126.356 102.432 228.788 228.789 228.788 126.356 0 228.789-102.432 228.789-228.788 0-126.357-102.433-228.789-228.789-228.789z" fill="#d81e06" p-id="31282" data-spm-anchor-id="a313x.search_index.0.i4.45e53a81GMjmsk" class=""></path></svg>