<?xml version="1.0" standalone="no"?><!DOCTYPE svg PUBLIC "-//W3C//DTD SVG 1.1//EN" "http://www.w3.org/Graphics/SVG/1.1/DTD/svg11.dtd"><svg t="1761815969159" class="icon" viewBox="0 0 1024 1024" version="1.1" xmlns="http://www.w3.org/2000/svg" p-id="8800" xmlns:xlink="http://www.w3.org/1999/xlink" width="128" height="128"><path d="M511 515m-429 0a429 429 0 1 0 858 0 429 429 0 1 0-858 0Z" fill="#E52323" p-id="8801"></path><path d="M767.7 460.58a54.25 54.25 0 0 0 10.64-56.29 368.11 368.11 0 0 0-38.22-69A51.66 51.66 0 0 0 698.37 315a54 54 0 0 0-11.37 1.17 77 77 0 0 1-16.62 1.83 78 78 0 0 1-38.56-10.36 74.79 74.79 0 0 1-35-43.49A54.12 54.12 0 0 0 553.31 227a330.76 330.76 0 0 0-39.67-2.39 312.89 312.89 0 0 0-38.82 2.39 54.12 54.12 0 0 0-43.49 37.15 77.3 77.3 0 0 1-73.56 53.89 76.14 76.14 0 0 1-16.68-1.85 53.87 53.87 0 0 0-11.33-1.19 55.14 55.14 0 0 0-42.82 20.31 271.85 271.85 0 0 0-39.28 67.93 54.25 54.25 0 0 0 10.64 56.29 77.94 77.94 0 0 1 0 104.05 54.27 54.27 0 0 0-10.64 56.29 291.28 291.28 0 0 0 39.28 67.93 53.45 53.45 0 0 0 41.82 20.32A54.83 54.83 0 0 0 340 707a79.17 79.17 0 0 1 16.74-1.81A76.21 76.21 0 0 1 430.27 759a54.19 54.19 0 0 0 43.49 37.17 248.45 248.45 0 0 0 39.24 3.2c12.84 0 26.45-1 39.2-2.17a54.17 54.17 0 0 0 43.53-37.2 77.39 77.39 0 0 1 73.58-53.89A75.87 75.87 0 0 1 686 708a50.34 50.34 0 0 0 10.87 1.18 54.51 54.51 0 0 0 42.23-20.32 269.32 269.32 0 0 0 39.28-67.93 54.25 54.25 0 0 0-10.64-56.28 78 78 0 0 1-0.04-104.07zM513 666.86A154.86 154.86 0 1 1 667.86 512 154.86 154.86 0 0 1 513 666.86z" fill="#FFFFFF" p-id="8802"></path><path d="M513 512m-91.83 0a91.83 91.83 0 1 0 183.66 0 91.83 91.83 0 1 0-183.66 0Z" fill="#FFFFFF" p-id="8803"></path></svg>