<?xml version="1.0" encoding="UTF-8"?>
<svg width="128" height="128" viewBox="0 0 1024 1024" xmlns="http://www.w3.org/2000/svg">
  <defs>
    <!-- 集成工具黄色渐变背景 -->
    <linearGradient id="integrationGradient" x1="0%" y1="0%" x2="100%" y2="100%">
      <stop offset="0%" style="stop-color:#ffc107;stop-opacity:1" />
      <stop offset="100%" style="stop-color:#ff9800;stop-opacity:1" />
    </linearGradient>
  </defs>
  
  <!-- 圆形背景 -->
  <circle cx="512" cy="512" r="480" fill="url(#integrationGradient)" />
  
  <!-- 集成工具图标 -->
  <g fill="#FFFFFF">
    <!-- 六边形框架 -->
    <path d="M 512 212 L 732 332 L 732 692 L 512 812 L 292 692 L 292 332 Z" fill="none" stroke="#FFFFFF" stroke-width="32" stroke-linejoin="round" />
    
    <!-- 内部齿轮 -->
    <circle cx="512" cy="512" r="120" fill="none" stroke="#FFFFFF" stroke-width="32" />
    <circle cx="512" cy="512" r="60" fill="#FFFFFF" />
    
    <!-- 齿轮齿 -->
    <rect x="492" y="332" width="40" height="80" rx="8" />
    <rect x="492" y="612" width="40" height="80" rx="8" />
    <rect x="332" y="492" width="80" height="40" rx="8" />
    <rect x="612" y="492" width="80" height="40" rx="8" />
    
    <!-- 对角齿轮齿 -->
    <rect x="380" y="380" width="40" height="80" rx="8" transform="rotate(45 400 420)" />
    <rect x="604" y="380" width="40" height="80" rx="8" transform="rotate(-45 624 420)" />
    <rect x="380" y="564" width="40" height="80" rx="8" transform="rotate(-45 400 604)" />
    <rect x="604" y="564" width="40" height="80" rx="8" transform="rotate(45 624 604)" />
    
    <!-- 连接线 -->
    <line x1="512" y1="212" x2="512" y2="332" stroke="#FFFFFF" stroke-width="24" stroke-linecap="round" />
    <line x1="512" y1="692" x2="512" y2="812" stroke="#FFFFFF" stroke-width="24" stroke-linecap="round" />
    <line x1="292" y1="512" x2="392" y2="512" stroke="#FFFFFF" stroke-width="24" stroke-linecap="round" />
    <line x1="632" y1="512" x2="732" y2="512" stroke="#FFFFFF" stroke-width="24" stroke-linecap="round" />
  </g>
</svg>
